<?xml version="1.0" encoding="UTF-8"?>
<svg width="264px" height="264px" viewBox="0 0 264 264" version="1.1" xmlns="http://www.w3.org/2000/svg" xmlns:xlink="http://www.w3.org/1999/xlink">
    <!-- Generator: Sketch 44 (41411) - http://www.bohemiancoding.com/sketch -->
    <title>bq</title>
    <desc>Created with Sketch.</desc>
    <defs>
        <circle id="path-1" cx="128" cy="128" r="128"></circle>
        <filter x="-4.5%" y="-4.5%" width="109.0%" height="109.0%" filterUnits="objectBoundingBox" id="filter-2">
            <feMorphology radius="10" operator="erode" in="SourceAlpha" result="shadowSpreadInner1"></feMorphology>
            <feGaussianBlur stdDeviation="1.5" in="shadowSpreadInner1" result="shadowBlurInner1"></feGaussianBlur>
            <feOffset dx="0" dy="2" in="shadowBlurInner1" result="shadowOffsetInner1"></feOffset>
            <feComposite in="shadowOffsetInner1" in2="SourceAlpha" operator="arithmetic" k2="-1" k3="1" result="shadowInnerInner1"></feComposite>
            <feColorMatrix values="0 0 0 0 0   0 0 0 0 0   0 0 0 0 0  0 0 0 0.5 0" type="matrix" in="shadowInnerInner1"></feColorMatrix>
        </filter>
        <path d="M172.450909,175.828663 C158.021818,162.996582 147.083636,138.732285 147.083636,119.60082 L147.083636,117.034404 L168.96,117.034404 L168.96,101.869219 L147.083636,96.2697653 C148.014545,87.1706539 150.807273,78.304853 154.763636,70.1389838 L158.72,62.2064252 L140.101818,62.2064252 C142.661818,59.4066986 144.290909,55.4404192 144.290909,51.2408293 C144.290909,42.1417179 136.843636,34.9090909 128,34.9090909 C119.156364,34.9090909 111.709091,42.3750285 111.709091,51.2408293 C111.709091,55.4404192 113.338182,59.4066986 115.898182,62.2064252 L97.28,62.2064252 L101.236364,70.1389838 C105.425455,78.304853 107.985455,87.1706539 108.916364,96.2697653 L87.04,101.869219 L87.04,117.034404 L108.916364,117.034404 L108.916364,119.834131 C108.916364,138.965596 97.9781818,162.996582 83.3163636,176.061973 L81.4545455,177.461836 L81.4545455,221.090909 L174.545455,221.090909 L174.545455,180.028252 L174.545455,177.461836 L172.450909,175.828663 Z" id="path-3"></path>
        <filter x="-8.6%" y="-4.3%" width="117.2%" height="108.6%" filterUnits="objectBoundingBox" id="filter-4">
            <feMorphology radius="1" operator="erode" in="SourceAlpha" result="shadowSpreadInner1"></feMorphology>
            <feGaussianBlur stdDeviation="5" in="shadowSpreadInner1" result="shadowBlurInner1"></feGaussianBlur>
            <feOffset dx="0" dy="5" in="shadowBlurInner1" result="shadowOffsetInner1"></feOffset>
            <feComposite in="shadowOffsetInner1" in2="SourceAlpha" operator="arithmetic" k2="-1" k3="1" result="shadowInnerInner1"></feComposite>
            <feColorMatrix values="0 0 0 0 0   0 0 0 0 0   0 0 0 0 0  0 0 0 0.5 0" type="matrix" in="shadowInnerInner1"></feColorMatrix>
        </filter>
    </defs>
    <g id="Page-1" stroke="none" stroke-width="1" fill="none" fill-rule="evenodd">
        <g id="bq" transform="translate(4.000000, 4.000000)">
            <g id="Oval-Copy">
                <use fill="#303030" fill-rule="evenodd" xlink:href="#path-1"></use>
                <use fill="black" fill-opacity="1" filter="url(#filter-2)" xlink:href="#path-1"></use>
                <use stroke="#EAEAEA" stroke-width="8" xlink:href="#path-1"></use>
            </g>
            <g fill-rule="nonzero">
                <use fill="#EAEAEA" fill-rule="evenodd" xlink:href="#path-3"></use>
                <use fill="black" fill-opacity="1" filter="url(#filter-4)" xlink:href="#path-3"></use>
            </g>
        </g>
    </g>
</svg>