<?xml version="1.0" encoding="UTF-8"?>
<svg width="40px" height="85px" viewBox="0 0 40 85" version="1.1" xmlns="http://www.w3.org/2000/svg" xmlns:xlink="http://www.w3.org/1999/xlink">
    <!-- Generator: Sketch 43.2 (39069) - http://www.bohemiancoding.com/sketch -->
    <title>bb</title>
    <desc>Created with Sketch.</desc>
    <defs></defs>
    <g id="Page-1" stroke="none" stroke-width="1" fill="none" fill-rule="evenodd">
        <g id="bb" transform="translate(-35.000000, -13.000000)">
            <circle id="Oval" cx="55" cy="55" r="55"></circle>
            <path d="M74.1,78.2 C67.9,72.7 63.2,62.3 63.2,54.1 L63.2,53 L72.6,53 L72.6,46.5 L65,44.5 C66.1,42.1 66.7,39.4 66.7,36.5 C66.7,32.8 65.7,29.2 63.8,26.4 C61.5,22.9 60.1,19.3 59.7,15.7 L59.4,13 L50.5,13 L50.2,15.7 C49.8,19.3 48.4,22.9 46.1,26.4 C44.2,29.2 43.2,32.8 43.2,36.5 C43.2,39.4 43.8,42.1 44.9,44.5 L37.3,46.4 L37.3,52.9 L46.7,52.9 L46.7,54.1 C46.7,62.3 42,72.6 35.7,78.2 L35,78.9 L35,97.6 L75,97.6 L75,80 L75,78.9 L74.1,78.2 Z" fill="#000000" fill-rule="nonzero"></path>
        </g>
    </g>
</svg>