<?xml version="1.0" encoding="UTF-8"?>
<svg width="40px" height="80px" viewBox="0 0 40 80" version="1.1" xmlns="http://www.w3.org/2000/svg" xmlns:xlink="http://www.w3.org/1999/xlink">
    <!-- Generator: Sketch 43.2 (39069) - http://www.bohemiancoding.com/sketch -->
    <title>bq</title>
    <desc>Created with Sketch.</desc>
    <defs></defs>
    <g id="Page-1" stroke="none" stroke-width="1" fill="none" fill-rule="evenodd">
        <g id="bq" transform="translate(-35.000000, -15.000000)">
            <circle id="Oval-Copy" cx="55" cy="55" r="55"></circle>
            <path d="M74.1,75.5513784 C67.9,70.037594 63.2,59.6115288 63.2,51.3909774 L63.2,50.2882206 L72.6,50.2882206 L72.6,43.7719298 L63.2,41.3659148 C63.6,37.4561404 64.8,33.6466165 66.5,30.1378446 L68.2,26.7293233 L60.2,26.7293233 C61.3,25.5263158 62,23.8220551 62,22.0175439 C62,18.1077694 58.8,15 55,15 C51.2,15 48,18.2080201 48,22.0175439 C48,23.8220551 48.7,25.5263158 49.8,26.7293233 L41.8,26.7293233 L43.5,30.1378446 C45.3,33.6466165 46.4,37.4561404 46.8,41.3659148 L37.4,43.7719298 L37.4,50.2882206 L46.8,50.2882206 L46.8,51.4912281 C46.8,59.7117794 42.1,70.037594 35.8,75.6516291 L35,76.2531328 L35,95 L75,95 L75,77.3558897 L75,76.2531328 L74.1,75.5513784 Z" fill="#000000" fill-rule="nonzero"></path>
        </g>
    </g>
</svg>