<?xml version="1.0" encoding="UTF-8"?>
<svg width="42px" height="94px" viewBox="0 0 42 94" version="1.1" xmlns="http://www.w3.org/2000/svg" xmlns:xlink="http://www.w3.org/1999/xlink">
    <!-- Generator: Sketch 43.2 (39069) - http://www.bohemiancoding.com/sketch -->
    <title>wk</title>
    <desc>Created with Sketch.</desc>
    <defs></defs>
    <g id="Page-1" stroke="none" stroke-width="1" fill="none" fill-rule="evenodd">
        <g id="wk" transform="translate(-34.000000, -7.000000)">
            <circle id="Oval-Copy-3" cx="55" cy="55" r="55"></circle>
            <path d="M74.1,79.8 C68.3,74.6 63.2,62.3 63.2,53.3 L63.2,52.2 L72.6,52.2 L72.6,45.7 L63.7,43.5 L67.4,29.9 L60.5,29.9 L62.2,26.4 L55,10 L47.7,26.4 L49.4,29.9 L42.5,29.9 L46.2,43.5 L37.3,45.7 L37.3,52.2 L46.7,52.2 L46.7,53.4 C46.7,62.3 41.6,74.6 35.7,79.8 L35,80.5 L35,99.2 L75,99.2 L75,81.6 L75,80.5 L74.1,79.8 Z" id="bk" stroke="#000000" stroke-width="2" fill="#FFFFFF" fill-rule="nonzero"></path>
        </g>
    </g>
</svg>