<?xml version="1.0" encoding="UTF-8"?>
<svg width="51px" height="95px" viewBox="0 0 51 95" version="1.1" xmlns="http://www.w3.org/2000/svg" xmlns:xlink="http://www.w3.org/1999/xlink">
    <!-- Generator: Sketch 43.2 (39069) - http://www.bohemiancoding.com/sketch -->
    <title>wn</title>
    <desc>Created with Sketch.</desc>
    <defs></defs>
    <g id="Page-1" stroke="none" stroke-width="1" fill="none" fill-rule="evenodd">
        <g id="wn" transform="translate(-30.000000, -6.000000)">
            <circle id="Oval-Copy-4" cx="55" cy="55" r="55"></circle>
            <path d="M77.8674886,32.2 L65.3674886,29.9 L65.3674886,27.4 L55.9674886,26.2 L55.9674886,10 L45.0674886,26.4 L44.5674886,26.6 C39.1674886,28.5 34.7674886,32.6 32.5674886,37.9 C30.3674886,43.2 30.4674886,49.2 32.9674886,54.3 L41.9674886,71.8 L36.0674886,79.2 L36.0674886,84.9 L33.7674886,87.2 L33.7674886,100 L73.6674886,100 L73.6674886,87.3 L71.3674886,85 L71.3674886,79.3 L65.4674886,72 L68.6674886,65.2 L68.6674886,65.1 C69.6674886,62.6 69.3674886,59.7 67.7674886,57.5 L60.4674886,46.7 C62.3674886,45.9 64.6674886,45.8 66.6674886,46.5 L73.0674886,48.6 L78.7674886,42.9 L77.8674886,41.1 L79.7674886,40.1 L77.8674886,32.2 Z" id="bn" stroke="#000000" stroke-width="2" fill="#FFFFFF" fill-rule="nonzero"></path>
        </g>
    </g>
</svg>