<?xml version="1.0" encoding="UTF-8"?>
<svg width="38px" height="63px" viewBox="0 0 38 63" version="1.1" xmlns="http://www.w3.org/2000/svg" xmlns:xlink="http://www.w3.org/1999/xlink">
    <!-- Generator: Sketch 43.2 (39069) - http://www.bohemiancoding.com/sketch -->
    <title>wp</title>
    <desc>Created with Sketch.</desc>
    <defs></defs>
    <g id="Page-1" stroke="none" stroke-width="1" fill="none" fill-rule="evenodd">
        <g id="wp" transform="translate(-36.000000, -23.000000)">
            <circle id="Oval-Copy-2" cx="55" cy="55" r="55"></circle>
            <path d="M71.5,71.7 C65.3,64.8 62.2,58.5 61.7,50.9 L69.8,50.9 L69.8,44.5 L65.1,43 C66.6,40.9 67.4,38.3 67.4,35.7 C67.4,28.9 62,24 54.5,24 C47,24 41.6,28.9 41.6,35.7 C41.6,38.4 42.4,40.9 43.9,43 L39.3,44.5 L39.3,50.9 L47.4,50.9 C46.8,58.4 43.8,64.7 37.6,71.7 L37,72.4 L37,85 L72.2,85 L72.2,72.3 L71.5,71.7 Z" id="bp" stroke="#000000" stroke-width="2" fill="#FFFFFF" fill-rule="nonzero"></path>
        </g>
    </g>
</svg>